<svg width="245" height="115" viewBox="0 0 245 115" fill="none" xmlns="http://www.w3.org/2000/svg">
<path d="M61.4993 67.0723C61.5326 67.4366 61.5326 67.7347 61.0331 67.7347C58.0364 67.7016 55.073 67.7347 52.0762 67.7347C51.9763 67.7347 51.9097 67.7016 51.71 67.6685C54.5402 62.2695 57.3372 56.9369 60.1341 51.5711C60.1674 51.5711 60.234 51.6042 60.2673 51.6042C60.3006 52.0348 60.3672 52.4323 60.4005 52.8629C60.7002 56.8375 60.9998 60.8122 61.2995 64.8199C61.3328 65.5486 61.4327 66.3104 61.4993 67.0723Z" fill="white"/>
<path d="M73.6198 36.7656C73.8196 36.7324 74.0527 36.6993 74.3523 36.6993C74.1192 37.9911 73.9195 39.2497 73.6864 40.4421C72.6209 46.5366 71.5887 52.6642 70.4233 58.7586C70.057 60.7128 69.4244 62.6339 68.7917 64.5219C68.3589 65.7474 67.4598 66.5423 66.2611 66.8736C65.8949 66.9729 65.7617 66.8404 65.7284 66.443C65.5619 63.9919 65.3621 61.5409 65.1956 59.123C64.9959 56.4732 64.7961 53.7903 64.6629 51.1406C64.563 49.1532 64.4964 47.1328 64.5963 45.1455C64.7295 42.5288 65.9615 40.5084 67.8594 38.8854C69.5576 37.4611 71.5221 36.9312 73.6198 36.7656Z" fill="white"/>
<path d="M62.0327 18.0847C40.1565 18.0847 22.4092 35.7388 22.4092 57.5C22.4092 79.2612 40.1565 96.9153 62.0327 96.9153C83.9089 96.9153 101.656 79.2612 101.656 57.5C101.656 35.7388 83.9089 18.0847 62.0327 18.0847ZM88.8369 50.445C87.5383 51.9686 85.94 53.0285 84.1753 53.8897C81.8445 54.9827 79.4138 55.3471 76.9165 55.2808C76.8499 55.2808 76.8166 55.2477 76.7167 55.2146C76.9498 54.7509 77.1829 54.2872 77.4493 53.8566C77.5491 53.7241 77.8155 53.6578 78.0153 53.6578C81.5781 53.6247 84.3418 51.9686 86.273 48.6895C87.5716 46.4703 87.9378 44.0193 87.505 41.4689C87.1054 39.0841 85.6403 37.5936 83.5426 36.9643C82.2107 36.5668 80.8456 36.335 79.4138 36.335C79.1141 36.335 79.0142 36.5668 78.9809 36.7324C77.9154 42.5951 76.8832 48.4245 75.8843 54.2872C75.4514 56.8044 74.9187 59.2555 73.72 61.5078C72.3548 64.0251 70.5235 66.0455 68.2926 67.6023C67.6599 68.0328 67.0606 68.4634 66.3946 68.8609C66.1282 69.0265 65.9618 69.1921 66.0284 69.5565C66.2614 71.2126 66.3946 72.8687 66.7609 74.4916C67.2271 76.6115 68.4257 77.3733 70.4236 77.1083C70.923 77.0421 71.4558 76.9758 72.0218 76.9096C71.9885 77.1745 71.9552 77.6051 71.9219 77.9032C71.8886 78.4001 71.6556 78.5988 71.2227 78.665C68.7254 79.0956 66.1948 79.5925 63.6976 80.0562C62.4989 80.288 62.4989 80.288 62.4323 78.8969C62.2325 75.9159 61.9661 72.9349 61.7663 69.9208C61.733 69.424 61.5665 69.3577 61.167 69.3577C57.8706 69.3577 54.5742 69.3908 51.2444 69.3577C50.8116 69.3577 50.6451 69.5896 50.4786 69.9208C49.2466 72.2394 47.8814 74.4585 46.1833 76.4127C44.4185 78.4663 42.2542 79.6918 39.7237 80.1224C36.6603 80.6524 33.9633 79.7581 31.5992 77.6714C32.5315 76.6446 33.3972 75.6509 34.3295 74.6241C34.6292 75.0216 34.9622 75.4522 35.2951 75.8497C37.0932 78.0688 39.8901 78.1351 42.0212 77.1414C43.7859 76.3134 45.1178 74.8891 46.3165 73.2661C48.4475 70.4176 50.1124 67.2048 51.7772 64.0251C54.2745 59.2555 56.8051 54.519 59.3023 49.7826C59.4022 49.5838 59.5021 49.3851 59.6686 49.0207C59.036 48.9545 58.5032 48.8883 57.9705 48.822C56.0059 48.6233 54.0747 48.6564 52.1768 49.352C49.3798 50.3788 47.5152 52.9623 47.3487 56.2082C47.2821 57.235 47.0823 57.9306 46.0834 58.2949C45.1511 58.6262 44.2854 59.2224 43.2864 59.7854C43.3197 59.3548 43.3197 59.0236 43.3863 58.6924C43.9524 54.5853 45.7171 51.2731 49.0135 49.0539C50.5119 48.0271 52.2434 47.5634 53.9748 47.3315C55.9393 47.0334 57.9039 46.8678 59.9017 46.7353C60.5343 46.7022 60.6675 46.3379 60.7674 45.8079C61.9994 40.6077 65.0627 37.428 69.7243 35.9706C71.7887 35.3413 73.8532 34.8776 75.9842 34.7451C77.6823 34.6457 79.4138 34.5133 81.1119 34.5795C83.7757 34.6789 86.4062 34.977 88.9368 36.0038C91.8003 37.163 92.9324 40.674 92.333 43.4894C91.767 46.2385 90.5017 48.4577 88.8369 50.445Z" fill="white"/>
<path d="M76.4835 15.998C76.2838 15.9317 76.1173 15.8655 75.9175 15.7992C71.156 14.2094 66.4944 13.4807 62.0326 13.4807C57.5708 13.4807 52.9092 14.1762 48.1477 15.7992C47.9479 15.8655 47.7815 15.9317 47.5817 15.998C17.581 25.8021 6.16009 67.1054 34.0631 91.2514C34.2295 91.417 34.4293 91.5495 34.5958 91.682L35.1286 92.1126C35.8278 92.7088 36.5936 93.2056 37.3262 93.7356L37.5925 93.9343L37.8922 94.1331L39.0243 94.8617C39.2241 94.9942 39.3906 95.1267 39.5904 95.2261C39.9899 95.4579 40.3562 95.6898 40.7558 95.8885C47.282 99.5651 54.6074 101.453 61.9993 101.519C69.358 101.453 76.6833 99.532 83.2429 95.8885C83.6424 95.6567 84.0087 95.4579 84.4083 95.2261C84.608 95.1267 84.8078 94.9942 84.9743 94.8617L86.1064 94.1331L86.4061 93.9343L86.6724 93.7356C87.405 93.2056 88.1708 92.7088 88.8701 92.1126L89.4028 91.682C89.5693 91.5495 89.7691 91.417 89.9356 91.2514C117.872 67.1054 106.451 25.8021 76.4835 15.998ZM88.1375 89.0654C87.971 89.1979 87.8046 89.3304 87.6381 89.4628L87.1386 89.8603C86.4727 90.3903 85.7734 90.8871 85.0742 91.3839L84.8078 91.5827L84.5414 91.7483L83.4759 92.4438C83.3094 92.5432 83.1097 92.6757 82.9432 92.7751C82.5769 92.9738 82.2106 93.2056 81.8444 93.4044C75.7177 96.8159 68.8918 98.6045 61.9993 98.6708C55.1068 98.6045 48.2809 96.8159 42.1542 93.4044C41.788 93.2056 41.4217 92.9738 41.0554 92.7751C40.8557 92.6757 40.6892 92.5432 40.5227 92.4438L39.4572 91.7483L39.1908 91.5827L38.9244 91.3839C38.2252 90.8871 37.526 90.4234 36.86 89.8603L36.3606 89.4628C36.1941 89.3304 36.0276 89.1979 35.8611 89.0654C9.82277 66.4761 20.4778 27.8888 48.514 18.714C48.6805 18.6477 48.8803 18.5815 49.0467 18.5484C53.4753 17.0579 57.8372 16.3954 61.9993 16.3954C66.1614 16.3954 70.5234 17.0579 74.9519 18.5484C75.1184 18.6146 75.3181 18.6809 75.4846 18.714C103.554 27.8888 114.209 66.4761 88.1375 89.0654Z" fill="white"/>
<path d="M62.0323 111.224L55.9057 113.907C53.9411 114.768 51.7768 115.099 49.6458 114.867C40.7222 113.94 36.7265 113.808 27.7363 110.661C36.5934 111.39 46.4826 110.33 58.8691 105.395C59.2021 105.262 59.535 105.13 59.868 104.997C60.1677 104.865 60.4674 104.699 60.7337 104.6C61.3664 104.302 61.7659 104.103 61.999 104.003C62.2321 104.103 62.6317 104.302 63.2643 104.6C63.5307 104.732 63.8304 104.865 64.13 104.997C64.463 105.13 64.796 105.262 65.1289 105.395C77.5155 110.33 87.4047 111.39 96.2617 110.661C87.0717 113.907 83.0761 113.973 73.7196 114.934C72.0214 115.099 70.29 114.834 68.725 114.172L62.0323 111.224Z" fill="white"/>
<path d="M53.8414 104.6C48.4473 107.349 43.6858 108.641 37.5924 109.502C34.4625 108.906 29.6677 107.481 24.44 105.063L23.8407 104.765C23.6409 104.666 23.4411 104.567 23.2414 104.467C19.3789 102.447 16.3488 100.658 12.1201 97.2465C16.7817 99.3332 24.0738 102.215 38.7578 102.811C41.1552 102.91 43.8856 102.91 46.2496 102.579C47.5482 103.01 50.0455 103.937 53.8414 104.6Z" fill="white"/>
<path d="M70.1904 104.6C75.5846 107.349 80.3461 108.641 86.4394 109.502C89.5694 108.906 94.3641 107.481 99.5918 105.063L100.191 104.765C100.391 104.666 100.591 104.567 100.79 104.467C104.653 102.447 107.683 100.658 111.912 97.2465C107.25 99.3332 99.9581 102.215 85.274 102.811C82.8766 102.91 80.1463 102.91 77.7822 102.579C76.4836 103.01 73.9863 103.937 70.1904 104.6Z" fill="white"/>
<path d="M38.3579 98.9689C38.3579 98.9689 38.1248 99.002 37.6919 99.0351C37.592 99.0351 37.4588 99.0682 37.3256 99.0682C37.1925 99.0682 37.0593 99.1014 36.9261 99.1014C36.6264 99.1345 36.2934 99.1345 35.9272 99.1676C35.5609 99.2007 35.128 99.2007 34.7285 99.2339C34.4954 99.2339 34.2956 99.2339 34.0625 99.2339C33.8295 99.2339 33.5964 99.2339 33.3633 99.2339C29.2012 99.2339 25.2388 98.737 21.8758 97.909C14.0177 92.8413 7.85772 86.8793 2.56348 78.102C10.5548 85.8525 22.009 91.682 31.9315 94.4643C32.1979 94.6961 31.7983 94.3649 33.896 96.021C34.2623 96.286 34.6619 96.5841 35.0614 96.8491C35.2612 96.9816 35.461 97.1472 35.6608 97.2797C35.8606 97.4121 36.0604 97.5446 36.2601 97.6771C36.6597 97.909 37.026 98.1408 37.3256 98.3396C37.4921 98.4389 37.6253 98.5383 37.7585 98.6045C37.8917 98.6708 37.9916 98.737 38.0915 98.8033C38.258 98.9026 38.3579 98.9689 38.3579 98.9689Z" fill="white"/>
<path d="M85.6729 98.9689C85.6729 98.9689 85.9059 99.002 86.3388 99.0351C86.4387 99.0351 86.5719 99.0682 86.7051 99.0682C86.8383 99.0682 86.9714 99.1014 87.1046 99.1014C87.4043 99.1345 87.7373 99.1345 88.1035 99.1676C88.4698 99.2007 88.9027 99.2007 89.3022 99.2339C89.5353 99.2339 89.7351 99.2339 89.9682 99.2339C90.2013 99.2339 90.4343 99.2339 90.6674 99.2339C94.8296 99.2339 98.7919 98.737 102.155 97.909C110.013 92.8413 116.173 86.8793 121.467 78.102C113.476 85.8525 102.022 91.682 92.0992 94.4643C91.8328 94.6961 92.2324 94.3649 90.1347 96.021C89.7684 96.286 89.3688 96.5841 88.9693 96.8491C88.7695 96.9816 88.5697 97.1472 88.3699 97.2797C88.1701 97.4121 87.9704 97.5446 87.7706 97.6771C87.371 97.909 87.0047 98.1408 86.7051 98.3396C86.5386 98.4389 86.4054 98.5383 86.2722 98.6045C86.139 98.6708 86.0391 98.737 85.9392 98.8033C85.7727 98.9026 85.6729 98.9689 85.6729 98.9689Z" fill="white"/>
<path d="M25.7387 88.3698C21.2102 87.3099 15.6496 84.892 11.0213 81.8448C5.6605 74.7566 1.73145 66.7079 0 57.1357C5.19435 67.9666 15.9493 78.2013 21.2102 81.9441C22.2758 83.799 24.2736 86.6806 25.7387 88.3698Z" fill="white"/>
<path d="M98.293 88.3698C102.821 87.3099 108.382 84.892 113.01 81.8448C118.371 74.7566 122.3 66.7079 124.032 57.1357C118.837 67.9666 108.082 78.2013 102.821 81.9441C101.789 83.799 99.7913 86.6806 98.293 88.3698Z" fill="white"/>
<path d="M17.4805 74.1273C13.4183 71.2126 9.65571 67.8341 6.32601 63.197C3.49575 53.5916 3.12948 44.3837 4.56126 36.7325C5.39369 46.2716 11.3539 60.3485 15.4494 66.5093C16.1153 70.3183 17.0144 72.7693 17.4805 74.1273Z" fill="white"/>
<path d="M106.584 74.1273C110.646 71.2126 114.409 67.801 117.738 63.197C120.569 53.5916 120.935 44.3837 119.503 36.7325C118.671 46.2716 112.711 60.3485 108.615 66.5093C107.949 70.3183 107.017 72.7693 106.584 74.1273Z" fill="white"/>
<path d="M14.6178 57.9306C11.5545 53.2604 9.98954 50.0475 8.1582 44.1849C8.39128 37.1961 10.8886 27.2926 15.5502 19.2771C13.1195 28.2532 13.6855 42.7938 15.2838 50.0806C14.751 52.9291 14.6844 55.4464 14.6178 57.9306Z" fill="white"/>
<path d="M109.448 57.9306C112.511 53.2604 114.076 50.0475 115.908 44.1849C115.675 37.1961 113.177 27.2926 108.516 19.2771C110.946 28.2532 110.38 42.7938 108.782 50.0806C109.281 52.9291 109.381 55.4464 109.448 57.9306Z" fill="white"/>
<path d="M17.4479 41.7008C16.4823 38.3886 15.8163 30.8698 16.3158 26.9945C17.7809 23.8148 21.9097 14.6069 31.5658 6.5582C26.8044 13.3151 22.0096 26.3321 20.7776 34.5133C19.0128 37.6267 17.5478 41.2371 17.4479 41.7008Z" fill="white"/>
<path d="M106.584 41.7008C107.549 38.3886 108.215 30.8698 107.716 26.9945C106.251 23.8148 102.122 14.6069 92.4658 6.5582C97.2273 13.3151 102.022 26.3321 103.254 34.5133C105.019 37.6267 106.484 41.2371 106.584 41.7008Z" fill="white"/>
<path d="M25.7051 27.4251C26.5042 21.9268 28.1025 16.9916 29.734 13.6463C36.3934 6.98877 43.7188 2.48416 50.7112 0C43.9186 4.67022 34.5621 15.8986 31.3323 21.7612C28.9016 23.881 27.8028 25.0072 25.7051 27.4251Z" fill="white"/>
<path d="M98.3264 27.4251C97.5273 21.9268 95.929 16.9916 94.2975 13.6463C87.6381 6.98877 80.3127 2.48416 73.3203 0C80.1129 4.67022 89.4694 15.8986 92.6992 21.7612C95.1299 23.881 96.2287 25.0072 98.3264 27.4251Z" fill="white"/>
<path d="M38.3916 16.7598C41.122 15.2031 42.7535 14.4744 45.6504 13.3482C47.7814 11.4934 54.807 4.23965 62.0325 0.695587C57.9703 1.58988 50.7781 3.77594 46.7825 5.59766C43.4528 8.84363 40.6891 12.5202 38.3916 16.7598Z" fill="white"/>
<path d="M85.6732 16.7598C82.9428 15.2031 81.3113 14.4744 78.4144 13.3482C76.2834 11.4934 69.2577 4.23965 62.0322 0.695587C66.0945 1.58988 73.2867 3.77594 77.2823 5.59766C80.5787 8.84363 83.3424 12.5202 85.6732 16.7598Z" fill="white"/>
<path d="M62.0325 10.2679C62.0325 10.2679 61.9992 10.2679 61.9992 10.301C59.0025 10.3672 57.0046 10.4997 53.9746 11.0297C56.4719 8.90985 59.5019 6.8894 62.0325 5.46515C64.5631 6.8894 67.6264 8.90985 70.0904 11.0297C67.0604 10.4997 65.0625 10.3672 62.0658 10.301C62.0658 10.301 62.0325 10.301 62.0325 10.2679Z" fill="white"/>
<path d="M153.832 52.1011H144.742V51.9686C144.975 51.9355 145.208 51.8693 145.441 51.7699C145.641 51.6705 145.841 51.5712 145.974 51.4056C146.007 51.3393 146.074 51.2731 146.107 51.1406C146.141 51.0412 146.174 50.9087 146.174 50.7431C146.174 50.5775 146.207 50.445 146.241 50.2794C146.274 50.1138 146.241 49.9482 146.241 49.7826C146.241 49.6501 146.241 49.4514 146.241 49.2195C146.241 48.9876 146.241 48.7227 146.241 48.4577C146.241 48.1927 146.241 47.8946 146.241 47.5965C146.241 47.2984 146.241 47.0003 146.241 46.7353V43.8537C146.241 43.6881 146.241 43.4894 146.241 43.2906C146.241 43.0919 146.241 42.9263 146.207 42.7607C146.207 42.5951 146.174 42.4295 146.141 42.297C146.107 42.1645 146.074 42.0651 146.007 41.9989C145.874 41.8333 145.708 41.7339 145.541 41.7008C145.375 41.6676 145.142 41.6014 144.875 41.5683V41.4358H153.066L154.065 43.8868L153.932 43.9531C153.133 42.9594 152.367 42.297 151.668 41.9326C151.501 41.8664 151.202 41.8001 150.736 41.7339C150.269 41.6676 149.737 41.6345 149.071 41.6345C148.871 41.6345 148.638 41.6345 148.438 41.6676C148.238 41.7008 148.039 41.7008 147.939 41.7339C147.905 41.8995 147.905 42.2307 147.872 42.6944C147.872 43.1913 147.839 43.7543 147.839 44.4168C147.839 44.7811 147.839 45.1123 147.839 45.3773C147.839 45.6423 147.839 45.841 147.839 46.0066C147.839 46.1723 147.839 46.3047 147.839 46.371C147.839 46.4372 147.839 46.5035 147.839 46.5366C147.872 46.5366 147.972 46.5366 148.138 46.5366C148.305 46.5366 148.471 46.5366 148.638 46.5366C148.838 46.5366 149.037 46.5035 149.204 46.5035C149.404 46.5035 149.57 46.4704 149.703 46.4372C150.003 46.371 150.236 46.2716 150.436 46.1723C150.636 46.0729 150.802 45.9073 150.935 45.7417C151.069 45.5761 151.168 45.3773 151.235 45.1455C151.302 44.9136 151.368 44.6818 151.435 44.3837H151.601V49.0539H151.501C151.435 48.7227 151.302 48.4246 151.135 48.0933C150.969 47.7621 150.802 47.4971 150.636 47.3315C150.469 47.199 150.303 47.0666 150.07 47.0003C149.837 46.9009 149.57 46.8678 149.304 46.8347C149.171 46.8347 149.037 46.8016 148.938 46.8016C148.838 46.8016 148.738 46.8016 148.638 46.8016C148.538 46.8016 148.438 46.8016 148.338 46.8016C148.238 46.8016 148.105 46.8016 147.939 46.8016C147.905 46.9341 147.905 47.1328 147.905 47.3978C147.905 47.6628 147.905 47.9277 147.905 48.2258C147.905 48.3583 147.905 48.4908 147.905 48.6564C147.905 48.822 147.905 48.9876 147.905 49.1532C147.905 49.3189 147.905 49.4513 147.905 49.617C147.905 49.7826 147.905 49.8819 147.905 49.9813C147.905 50.3125 147.939 50.6106 147.972 50.8756C148.005 51.1406 148.039 51.3724 148.138 51.5049C148.238 51.6374 148.438 51.7368 148.771 51.803C149.104 51.8693 149.47 51.9024 149.87 51.9024C150.036 51.9024 150.269 51.9024 150.503 51.9024C150.769 51.9024 151.035 51.8693 151.335 51.8361C151.668 51.803 151.934 51.7368 152.201 51.6043C152.467 51.5049 152.733 51.3393 152.967 51.1075C153.2 50.8756 153.466 50.6437 153.699 50.3456C153.932 50.0475 154.165 49.6832 154.432 49.2526L154.598 49.2857L153.832 52.1011Z" fill="white"/>
<path d="M166.985 48.5901C166.819 49.1532 166.552 49.6501 166.253 50.0475C165.953 50.445 165.587 50.7762 165.187 51.0412C164.787 51.3062 164.355 51.5049 163.888 51.6705C163.422 51.8361 162.956 51.9355 162.49 52.0017C161.99 52.068 161.524 52.1011 161.091 52.1011H155.664V51.9686C155.897 51.9355 156.164 51.8692 156.397 51.7699C156.63 51.6705 156.796 51.538 156.929 51.4055C156.963 51.3724 157.029 51.273 157.029 51.1405C157.029 51.0081 157.063 50.8756 157.096 50.7431C157.129 50.6106 157.129 50.445 157.129 50.2794C157.129 50.1138 157.129 49.9482 157.129 49.7825C157.129 49.6501 157.129 49.4513 157.129 49.2195C157.129 48.9876 157.129 48.7226 157.129 48.4577C157.129 48.1927 157.129 47.8946 157.129 47.5965C157.129 47.2984 157.129 47.0003 157.129 46.7353V43.8537C157.129 43.6881 157.129 43.4893 157.129 43.3237C157.129 43.1581 157.129 42.9925 157.096 42.8269C157.096 42.6613 157.063 42.5288 157.029 42.4294C156.996 42.2969 156.963 42.1976 156.896 42.1313C156.763 41.9657 156.563 41.8332 156.363 41.767C156.164 41.7007 155.93 41.6345 155.664 41.6345V41.502C156.064 41.502 156.696 41.502 157.462 41.502C158.261 41.502 159.194 41.502 160.292 41.502C160.625 41.502 160.925 41.502 161.258 41.502C161.591 41.502 161.924 41.502 162.224 41.5351C162.557 41.5683 162.89 41.6014 163.189 41.6676C163.522 41.7339 163.822 41.8332 164.155 41.9657C164.554 42.1313 164.954 42.3632 165.32 42.6613C165.686 42.9263 166.019 43.2575 166.286 43.655C166.552 44.0524 166.785 44.483 166.952 44.9798C167.118 45.4767 167.185 46.0397 167.185 46.7022C167.251 47.3978 167.185 48.0271 166.985 48.5901ZM165.154 45.013C164.987 44.483 164.721 43.9862 164.421 43.5556C164.088 43.125 163.722 42.7607 163.289 42.4294C162.856 42.1313 162.39 41.9326 161.857 41.8332C161.658 41.8001 161.458 41.767 161.191 41.7339C160.958 41.7007 160.659 41.7007 160.326 41.7007C160.192 41.7007 160.093 41.7007 159.926 41.7007C159.793 41.7007 159.66 41.7007 159.527 41.7339C159.393 41.7339 159.26 41.767 159.16 41.767C159.06 41.767 158.96 41.8001 158.894 41.8001C158.861 42.2969 158.827 42.9594 158.794 43.7874C158.794 44.6486 158.794 45.6423 158.794 46.8347C158.794 47.464 158.794 48.0271 158.794 48.557C158.794 49.0539 158.794 49.4844 158.794 49.8157C158.794 49.9482 158.794 50.1138 158.827 50.2794C158.861 50.445 158.861 50.6106 158.894 50.7431C158.927 50.9087 158.96 51.0412 158.994 51.1405C159.027 51.273 159.094 51.3393 159.16 51.4055C159.36 51.6043 159.593 51.7367 159.926 51.7699C160.226 51.8361 160.525 51.8361 160.792 51.8361C161.025 51.8361 161.291 51.8361 161.558 51.803C161.824 51.7699 162.057 51.7367 162.29 51.6705C163.356 51.3724 164.155 50.7762 164.688 49.8819C165.22 48.9876 165.487 47.9277 165.487 46.6359C165.453 46.106 165.353 45.5429 165.154 45.013Z" fill="white"/>
<path d="M179.105 41.8995C178.905 42.032 178.739 42.2638 178.605 42.5288C178.572 42.5951 178.539 42.7275 178.539 42.86C178.505 43.0256 178.505 43.1913 178.472 43.4231C178.439 43.6218 178.439 43.8537 178.439 44.0856C178.439 44.3174 178.439 44.5493 178.439 44.7811C178.439 45.2117 178.406 45.6754 178.406 46.2054C178.406 46.7353 178.372 47.3315 178.339 47.994C178.339 48.1927 178.306 48.4245 178.306 48.6895C178.306 48.9545 178.239 49.2857 178.172 49.5838C178.106 49.915 177.973 50.2131 177.806 50.5444C177.64 50.8756 177.373 51.1406 177.074 51.4055C176.741 51.6705 176.341 51.8693 175.842 52.0349C175.342 52.2005 174.743 52.2667 174.01 52.2667C173.311 52.2667 172.678 52.2005 172.212 52.0349C171.713 51.9024 171.313 51.7036 171.014 51.4387C170.681 51.1737 170.448 50.9087 170.281 50.6106C170.115 50.3125 169.981 50.0144 169.881 49.7163C169.782 49.4182 169.748 49.1532 169.748 48.9214C169.748 48.6895 169.715 48.4908 169.715 48.3914C169.715 48.1265 169.715 47.7621 169.715 47.2984C169.715 46.8678 169.715 46.371 169.715 45.8079V43.8537C169.715 43.6881 169.715 43.4894 169.715 43.3237C169.715 43.1581 169.715 42.9925 169.682 42.8269C169.682 42.6613 169.648 42.5288 169.615 42.4294C169.582 42.297 169.548 42.1976 169.482 42.1313C169.349 41.9657 169.182 41.8332 168.982 41.767C168.783 41.7008 168.55 41.6345 168.283 41.6014V41.4689H172.712V41.6014C172.579 41.6345 172.412 41.6345 172.279 41.7008C172.112 41.7339 171.979 41.8001 171.846 41.8995C171.713 41.9989 171.613 42.0982 171.513 42.2307C171.413 42.3632 171.38 42.5619 171.38 42.7938C171.38 43.0588 171.347 43.2906 171.347 43.4894C171.347 43.6881 171.347 43.8868 171.347 44.0524C171.347 44.2512 171.347 44.4499 171.347 44.6486C171.347 44.8474 171.347 45.0792 171.347 45.3442C171.347 45.6754 171.347 45.9735 171.347 46.2385C171.347 46.5035 171.347 46.7684 171.347 47.0003C171.347 47.2322 171.347 47.4309 171.347 47.6627C171.347 47.8615 171.347 48.0933 171.347 48.3252C171.347 48.8551 171.446 49.3188 171.58 49.7494C171.713 50.18 171.946 50.5444 172.212 50.8425C172.479 51.1406 172.812 51.3724 173.178 51.538C173.577 51.7036 174.01 51.7699 174.51 51.7699C175.076 51.7699 175.542 51.7036 175.942 51.5711C176.341 51.4387 176.674 51.2731 176.907 51.0412C177.174 50.8093 177.373 50.5444 177.54 50.2463C177.706 49.9482 177.806 49.6501 177.873 49.2857C177.939 48.9545 178.006 48.6233 178.006 48.2589C178.006 47.8946 178.039 47.5634 178.039 47.2322C178.039 46.9672 178.039 46.7353 178.039 46.5035C178.039 46.2716 178.039 46.0729 178.039 45.9073C178.039 45.7085 178.039 45.5098 178.039 45.3442C178.039 45.1455 178.039 44.9467 178.039 44.748C178.039 44.5493 178.039 44.3505 178.039 44.1518C178.039 43.9531 178.039 43.7543 178.006 43.5556C178.006 43.3569 177.973 43.1913 177.973 43.0256C177.939 42.86 177.939 42.7275 177.873 42.6282C177.773 42.3632 177.606 42.1313 177.373 41.9657C177.14 41.8001 176.774 41.6676 176.308 41.6014V41.4689H180.004V41.6014C179.604 41.6676 179.305 41.767 179.105 41.8995Z" fill="white"/>
<path d="M190.859 44.9136C190.726 44.4499 190.526 43.9862 190.293 43.5887C190.026 43.1913 189.727 42.8269 189.394 42.4957C189.028 42.1976 188.661 41.9326 188.195 41.767C187.762 41.6014 187.296 41.502 186.797 41.502C186.097 41.502 185.498 41.6676 184.965 41.9657C184.433 42.2638 183.966 42.6613 183.633 43.1913C183.267 43.6881 183.001 44.2512 182.801 44.9136C182.601 45.5429 182.501 46.2054 182.501 46.8678C182.501 47.5634 182.601 48.2589 182.801 48.8551C183.001 49.4513 183.3 50.0144 183.667 50.4781C184.033 50.9418 184.499 51.3062 185.032 51.5712C185.565 51.8361 186.164 51.9686 186.83 51.9686C187.329 51.9686 187.829 51.8693 188.295 51.7036C188.761 51.538 189.161 51.2731 189.494 50.975C189.86 50.6769 190.126 50.3125 190.393 49.915C190.626 49.5176 190.792 49.1201 190.892 48.6895H191.059L191.025 51.9355H190.792C190.659 51.7699 190.559 51.6043 190.426 51.4718C190.293 51.3393 190.193 51.2731 190.16 51.2731C190.126 51.2731 190.06 51.3393 189.893 51.4387C189.727 51.538 189.494 51.6705 189.194 51.7699C188.894 51.8693 188.528 52.0017 188.095 52.1011C187.662 52.2005 187.163 52.2336 186.63 52.2336C185.698 52.2336 184.865 52.1011 184.133 51.8361C183.4 51.5712 182.768 51.2068 182.235 50.7431C181.702 50.2794 181.303 49.6832 181.036 49.0208C180.77 48.3583 180.637 47.6296 180.637 46.8347C180.637 46.6691 180.637 46.4704 180.67 46.2385C180.703 46.0066 180.737 45.7748 180.803 45.5098C180.87 45.2448 180.97 44.9799 181.07 44.7149C181.169 44.4499 181.336 44.1518 181.502 43.8537C181.702 43.5225 181.969 43.1913 182.268 42.8932C182.568 42.5951 182.934 42.3301 183.367 42.0982C183.8 41.8664 184.266 41.6676 184.766 41.5352C185.298 41.4027 185.864 41.3364 186.53 41.3364C187.13 41.3364 187.629 41.4027 188.095 41.502C188.528 41.6014 188.928 41.7339 189.194 41.8664C189.494 41.9989 189.727 42.0982 189.893 42.2307C190.06 42.3301 190.126 42.3963 190.16 42.3963C190.193 42.3963 190.226 42.3632 190.26 42.3301C190.326 42.297 190.359 42.2307 190.426 42.1645C190.493 42.0982 190.559 42.032 190.626 41.9326C190.692 41.8333 190.759 41.767 190.826 41.6676H190.992V44.9799L190.859 44.9136Z" fill="white"/>
<path d="M199.283 52.1011V51.9686C199.317 51.9686 199.383 51.9686 199.483 51.9355C199.583 51.9024 199.716 51.8692 199.85 51.8361C199.983 51.803 200.083 51.7036 200.183 51.6374C200.282 51.538 200.316 51.4387 200.316 51.3062C200.316 51.2068 200.282 51.0743 200.249 50.8756C200.183 50.6769 200.116 50.4119 200.016 50.1469C199.916 49.8488 199.816 49.5176 199.683 49.1864C199.55 48.822 199.417 48.4577 199.283 48.0933H195.321C195.188 48.4577 195.021 48.822 194.888 49.1532C194.755 49.4845 194.622 49.8488 194.489 50.18C194.289 50.71 194.189 51.0743 194.189 51.3062C194.189 51.4387 194.222 51.538 194.322 51.6374C194.389 51.7368 194.489 51.803 194.622 51.8361C194.755 51.9024 194.888 51.9355 195.021 51.9686C195.155 52.0017 195.288 52.0017 195.421 52.0349V52.1673H192.258V52.0017C192.524 51.9686 192.724 51.9024 192.924 51.803C193.124 51.7036 193.223 51.6043 193.257 51.5711C193.323 51.5049 193.457 51.3393 193.59 51.0743C193.756 50.8093 193.956 50.445 194.156 49.9482C194.356 49.4845 194.589 48.9545 194.855 48.3583C195.121 47.7621 195.388 47.1659 195.654 46.5366C195.92 45.9073 196.187 45.278 196.453 44.6486C196.72 44.0193 196.986 43.4231 197.219 42.86L197.086 42.5288C197.252 42.4626 197.419 42.3632 197.585 42.2638C197.719 42.1645 197.852 42.032 197.952 41.9326C198.051 41.8001 198.151 41.7008 198.218 41.6014C198.285 41.502 198.351 41.4027 198.384 41.3364H198.518C198.817 42.1645 199.117 42.9263 199.383 43.655C199.65 44.3837 199.916 45.1123 200.183 45.7748C200.449 46.4372 200.682 47.0997 200.915 47.7621C201.148 48.3914 201.381 49.0207 201.614 49.6501C201.714 49.9482 201.814 50.2131 201.914 50.4119C202.014 50.6106 202.114 50.8425 202.247 51.1074C202.28 51.1406 202.314 51.2068 202.38 51.3062C202.447 51.4055 202.547 51.5049 202.646 51.6043C202.746 51.7036 202.913 51.803 203.079 51.8693C203.246 51.9355 203.446 52.0017 203.679 52.0017V52.1673H199.283V52.1011ZM197.319 43.1581C197.252 43.2906 197.186 43.4894 197.053 43.7543C196.953 44.0193 196.786 44.3505 196.62 44.748C196.453 45.1455 196.253 45.5761 196.054 46.0729C195.854 46.5697 195.621 47.0997 195.388 47.6959H199.117C198.951 47.2653 198.784 46.8016 198.618 46.371C198.451 45.9404 198.285 45.5098 198.118 45.0792C197.952 44.6818 197.818 44.2843 197.685 43.9531C197.519 43.655 197.419 43.3569 197.319 43.1581Z" fill="white"/>
<path d="M213.901 44.2512C213.834 44.0855 213.734 43.8868 213.634 43.6881C213.534 43.4893 213.401 43.3237 213.301 43.1581C213.201 42.9925 213.068 42.8269 212.968 42.6944C212.868 42.5619 212.769 42.4294 212.702 42.3632C212.502 42.1645 212.269 42.032 212.036 41.9657C211.803 41.8995 211.47 41.8664 211.104 41.8664C210.904 41.8664 210.737 41.8664 210.604 41.8664C210.471 41.8664 210.338 41.8664 210.171 41.8664C210.038 41.8664 209.905 41.8664 209.739 41.8664C209.605 41.8664 209.406 41.8664 209.173 41.8664C209.173 42.0982 209.173 42.4626 209.173 42.86C209.173 43.2906 209.173 43.7212 209.173 44.1849C209.173 44.6486 209.173 45.1123 209.173 45.576C209.173 46.0066 209.173 46.4041 209.173 46.7022V49.9813C209.173 50.2794 209.173 50.5443 209.206 50.8093C209.206 51.0743 209.272 51.2399 209.339 51.3724C209.472 51.6043 209.705 51.7367 209.972 51.803C210.238 51.8692 210.504 51.9355 210.704 51.9686V52.1011H205.876V51.9686C206.142 51.9355 206.376 51.9024 206.609 51.8361C206.842 51.7699 207.075 51.6043 207.308 51.3393C207.341 51.3062 207.408 51.2068 207.408 51.1074C207.441 51.0081 207.441 50.8756 207.474 50.71C207.474 50.5775 207.508 50.4119 207.508 50.2463C207.508 50.0806 207.508 49.915 207.508 49.7494C207.508 49.6169 207.508 49.4182 207.508 49.1863C207.508 48.9545 207.508 48.7226 207.508 48.4245C207.508 48.1596 207.508 47.8615 207.508 47.5634C207.508 47.2653 207.508 47.0003 207.508 46.7353V41.8332C207.308 41.8332 207.108 41.8332 206.942 41.8332C206.808 41.8332 206.642 41.8332 206.509 41.8332C206.376 41.8332 206.242 41.8332 206.109 41.8332C205.976 41.8332 205.81 41.8332 205.61 41.8332C205.243 41.8332 204.91 41.8995 204.677 41.9657C204.444 42.032 204.211 42.1976 204.011 42.3963C203.945 42.4626 203.845 42.5619 203.745 42.6944C203.645 42.8269 203.545 42.9925 203.412 43.1581C203.312 43.3237 203.179 43.4893 203.079 43.6881C202.979 43.8868 202.879 44.0524 202.846 44.2512L202.713 44.218L203.146 41.4026C203.379 41.4358 203.579 41.502 203.778 41.5351C203.978 41.5683 204.245 41.5683 204.611 41.6014C204.977 41.6014 205.31 41.6345 205.61 41.6345C205.909 41.6345 206.209 41.6345 206.475 41.6345C206.742 41.6345 207.041 41.6345 207.308 41.6345C207.608 41.6345 207.941 41.6345 208.307 41.6345C208.673 41.6345 209.006 41.6345 209.272 41.6345C209.572 41.6345 209.872 41.6345 210.138 41.6345C210.404 41.6345 210.704 41.6345 211.004 41.6345C211.304 41.6345 211.636 41.6345 212.003 41.6345C212.336 41.6345 212.602 41.6014 212.802 41.5683C213.002 41.5351 213.235 41.4689 213.468 41.4026L213.934 44.2843L213.901 44.2512Z" fill="white"/>
<path d="M215.1 52.1011V51.9686C215.333 51.9355 215.566 51.8693 215.799 51.7699C215.999 51.6705 216.198 51.538 216.332 51.3724C216.365 51.3062 216.431 51.2399 216.431 51.1075C216.431 50.975 216.465 50.8756 216.498 50.71C216.531 50.5444 216.531 50.4119 216.531 50.2463C216.531 50.0807 216.531 49.9151 216.531 49.7494C216.531 49.617 216.531 49.4182 216.531 49.1864C216.531 48.9545 216.531 48.6895 216.531 48.4246C216.531 48.1596 216.531 47.8615 216.531 47.5634C216.531 47.2653 216.531 46.9672 216.531 46.7022V43.8206C216.531 43.655 216.531 43.4562 216.531 43.2906C216.531 43.125 216.531 42.9594 216.498 42.7938C216.498 42.6282 216.465 42.4957 216.431 42.3963C216.398 42.2638 216.365 42.1645 216.298 42.0982C216.165 41.9326 215.999 41.8001 215.799 41.7339C215.599 41.6676 215.366 41.6014 215.1 41.5683V41.4358H219.528V41.5683C219.328 41.6014 219.095 41.6676 218.862 41.7339C218.629 41.8001 218.429 41.9657 218.296 42.1976C218.196 42.3632 218.163 42.5619 218.163 42.8269C218.163 43.0919 218.163 43.3238 218.13 43.5556C218.13 43.7875 218.13 44.0524 218.13 44.2843C218.13 44.5161 218.13 44.7811 218.13 45.013C218.13 45.2448 218.13 45.5098 218.13 45.7748C218.13 46.0398 218.13 46.3047 218.13 46.6028V49.9482C218.13 50.2463 218.13 50.5113 218.13 50.7762C218.13 51.0412 218.196 51.2399 218.263 51.3393C218.396 51.5049 218.563 51.6374 218.829 51.7368C219.095 51.8361 219.328 51.8693 219.528 51.9024V52.0349H215.1V52.1011Z" fill="white"/>
<path d="M231.515 48.9214C231.215 49.5838 230.815 50.18 230.316 50.6769C229.816 51.1737 229.217 51.538 228.518 51.803C227.852 52.068 227.119 52.2005 226.353 52.2005C225.588 52.2005 224.888 52.068 224.222 51.803C223.557 51.538 222.957 51.1737 222.458 50.71C221.958 50.2463 221.559 49.6501 221.259 48.9876C220.959 48.3252 220.826 47.5965 220.826 46.8016C220.826 45.9404 220.993 45.1786 221.292 44.5161C221.592 43.8537 222.025 43.2575 222.524 42.7938C223.057 42.3301 223.656 41.9657 224.356 41.7008C225.055 41.4358 225.787 41.3364 226.553 41.3364C227.386 41.3364 228.152 41.4689 228.817 41.767C229.483 42.0651 230.049 42.4626 230.516 42.9594C230.982 43.4562 231.348 44.0193 231.581 44.6818C231.814 45.3442 231.947 46.0066 231.947 46.7353C231.947 47.4971 231.814 48.2258 231.515 48.9214ZM229.883 44.9136C229.716 44.3174 229.483 43.7543 229.184 43.2575C228.884 42.7607 228.484 42.3632 228.018 42.032C227.552 41.7008 226.986 41.5683 226.353 41.5683C225.721 41.5683 225.155 41.7339 224.689 42.032C224.222 42.3301 223.823 42.7607 223.523 43.2244C223.224 43.7212 222.99 44.2843 222.857 44.9136C222.724 45.5429 222.658 46.1723 222.658 46.8016C222.658 47.464 222.724 48.1265 222.891 48.7227C223.057 49.352 223.29 49.8819 223.59 50.3788C223.889 50.8756 224.289 51.2399 224.755 51.5049C225.221 51.7699 225.787 51.9355 226.387 51.9355C226.986 51.9355 227.552 51.7699 228.018 51.4718C228.484 51.1406 228.851 50.7431 229.184 50.2463C229.483 49.7494 229.716 49.1864 229.883 48.557C230.049 47.9277 230.116 47.2984 230.116 46.7022C230.116 46.1391 230.049 45.5429 229.883 44.9136Z" fill="white"/>
<path d="M244.134 41.8995C243.901 42.032 243.735 42.2638 243.635 42.5288C243.568 42.6613 243.535 42.9594 243.502 43.3569C243.468 43.7543 243.468 44.1849 243.435 44.6486C243.402 45.0792 243.402 45.576 243.368 46.1391C243.368 46.7022 243.335 47.3315 243.335 47.9939C243.335 48.2589 243.335 48.5901 243.335 48.9545C243.335 49.2857 243.335 49.6501 243.335 50.0144C243.335 50.3787 243.335 50.7431 243.335 51.0743C243.335 51.4055 243.335 51.7367 243.335 52.0348C243.335 52.068 243.335 52.1011 243.302 52.1342C243.269 52.1673 243.235 52.1673 243.202 52.1673C243.135 52.1673 243.035 52.1342 242.936 52.0348C242.103 51.0743 241.337 50.18 240.638 49.3851C239.939 48.5901 239.273 47.7952 238.64 47.0665C238.008 46.3378 237.408 45.6092 236.776 44.9136C236.176 44.218 235.544 43.4893 234.844 42.7275V48.9545C234.844 49.4513 234.844 49.915 234.878 50.3125C234.911 50.71 234.978 51.0081 235.077 51.2068C235.177 51.4386 235.344 51.6043 235.577 51.7036C235.81 51.803 236.143 51.9024 236.543 51.9355V52.068H232.88V51.9355C233.113 51.9024 233.346 51.8361 233.579 51.7367C233.812 51.6374 234.012 51.4718 234.145 51.273C234.278 51.0743 234.378 50.7762 234.412 50.3456C234.445 49.9482 234.478 49.4513 234.511 48.8882C234.545 48.4577 234.545 47.9608 234.545 47.3978C234.545 46.8347 234.545 46.2054 234.545 45.5429C234.545 45.2448 234.545 45.013 234.545 44.8473C234.545 44.6817 234.545 44.483 234.545 44.2843C234.545 44.0855 234.545 43.9199 234.545 43.7212C234.545 43.5225 234.545 43.2906 234.545 42.9925C234.511 42.6944 234.445 42.4626 234.345 42.2969C234.245 42.0982 234.112 41.9657 233.945 41.8664C233.779 41.767 233.646 41.7007 233.446 41.6345C233.279 41.6014 233.113 41.5683 232.946 41.5351V41.4026H235.977L243.035 49.5838V44.5492C243.035 44.1518 243.035 43.7874 243.035 43.4231C243.035 43.0588 242.969 42.7938 242.902 42.5619C242.802 42.2969 242.636 42.0651 242.37 41.8995C242.103 41.7339 241.737 41.6014 241.271 41.5351V41.4026H244.967V41.5351C244.634 41.6676 244.334 41.767 244.134 41.8995Z" fill="white"/>
<path d="M154.765 62.6339C154.632 62.1702 154.432 61.7065 154.199 61.309C153.933 60.9116 153.633 60.5472 153.3 60.216C152.934 59.9179 152.567 59.6529 152.101 59.4873C151.668 59.3217 151.202 59.2223 150.703 59.2223C150.003 59.2223 149.404 59.388 148.871 59.6861C148.339 59.9841 147.872 60.3816 147.54 60.9116C147.173 61.4084 146.907 61.9715 146.707 62.6339C146.507 63.2632 146.407 63.9257 146.407 64.5881C146.407 65.2837 146.507 65.9793 146.707 66.5755C146.907 67.1716 147.207 67.7347 147.573 68.1984C147.939 68.6621 148.405 69.0265 148.938 69.2915C149.471 69.5564 150.07 69.6889 150.736 69.6889C151.235 69.6889 151.735 69.5896 152.201 69.424C152.667 69.2583 153.067 68.9934 153.4 68.6953C153.766 68.3972 154.032 68.0328 154.299 67.6354C154.532 67.2379 154.698 66.8404 154.798 66.4098H154.965L154.931 69.6558H154.765C154.632 69.4902 154.532 69.3246 154.399 69.1921C154.265 69.0596 154.166 68.9934 154.132 68.9934C154.099 68.9934 154.032 69.0596 153.866 69.159C153.699 69.2583 153.466 69.3908 153.167 69.4902C152.867 69.5896 152.501 69.7221 152.068 69.8214C151.635 69.9208 151.136 69.9539 150.603 69.9539C149.671 69.9539 148.838 69.8214 148.106 69.5564C147.373 69.2915 146.74 68.9271 146.208 68.4634C145.675 67.9997 145.275 67.4035 145.009 66.7411C144.743 66.0786 144.609 65.3499 144.609 64.555C144.609 64.3894 144.609 64.1907 144.643 63.9588C144.676 63.727 144.709 63.4951 144.776 63.2301C144.842 62.9651 144.942 62.7002 145.042 62.4352C145.142 62.1702 145.309 61.8721 145.475 61.574C145.675 61.2428 145.941 60.9116 146.241 60.6135C146.541 60.3154 146.907 60.0504 147.34 59.8185C147.773 59.5867 148.239 59.388 148.738 59.2555C149.271 59.123 149.837 59.0567 150.503 59.0567C151.102 59.0567 151.602 59.123 152.068 59.2223C152.501 59.3217 152.9 59.4542 153.167 59.5867C153.466 59.7192 153.699 59.8185 153.866 59.951C154.032 60.0504 154.099 60.1166 154.132 60.1166C154.166 60.1166 154.199 60.0835 154.232 60.0504C154.299 60.0173 154.332 59.951 154.399 59.8848C154.465 59.8185 154.532 59.7523 154.598 59.6529C154.665 59.5536 154.732 59.4873 154.798 59.388H154.965V62.7002L154.765 62.6339Z" fill="white"/>
<path d="M165.72 69.8545H156.63V69.7221C156.863 69.6889 157.096 69.6227 157.329 69.5233C157.529 69.424 157.729 69.3246 157.862 69.159C157.895 69.0927 157.962 69.0265 157.995 68.894C158.028 68.7946 158.062 68.6622 158.062 68.4965C158.062 68.3309 158.095 68.1984 158.128 68.0328C158.162 67.8672 158.128 67.7016 158.128 67.536C158.128 67.4035 158.128 67.2048 158.128 66.9729C158.128 66.7411 158.128 66.4761 158.128 66.2111C158.128 65.9461 158.128 65.648 158.128 65.3499C158.128 65.0518 158.128 64.7537 158.128 64.4888V61.6072C158.128 61.4415 158.128 61.2428 158.128 61.0441C158.128 60.8453 158.128 60.6797 158.095 60.5141C158.062 60.3485 158.062 60.1829 158.028 60.0504C157.995 59.9179 157.962 59.8186 157.895 59.7523C157.762 59.5867 157.595 59.4873 157.429 59.4542C157.263 59.4211 157.029 59.3549 156.763 59.3217V59.1892H164.954L165.953 61.6403L165.82 61.7065C165.021 60.7129 164.255 60.0504 163.556 59.6861C163.389 59.6198 163.089 59.5536 162.623 59.4873C162.157 59.4211 161.624 59.388 160.958 59.388C160.759 59.388 160.526 59.388 160.326 59.4211C160.093 59.4211 159.926 59.4542 159.826 59.4873C159.793 59.653 159.793 59.9842 159.76 60.4479C159.726 60.9116 159.727 61.5078 159.727 62.1702C159.727 62.5346 159.727 62.8658 159.727 63.1308C159.727 63.3957 159.727 63.5945 159.727 63.7601C159.727 63.9257 159.727 64.0582 159.727 64.1244C159.727 64.1907 159.727 64.2569 159.727 64.29C159.76 64.29 159.86 64.29 160.026 64.29C160.193 64.29 160.359 64.29 160.526 64.29C160.725 64.29 160.925 64.2569 161.092 64.2569C161.291 64.2569 161.458 64.2238 161.591 64.1907C161.891 64.1244 162.124 64.0251 162.324 63.9257C162.523 63.8263 162.69 63.6607 162.823 63.4951C162.956 63.3295 163.056 63.1308 163.123 62.8989C163.189 62.6671 163.256 62.4352 163.323 62.1371H163.489V66.8073H163.323C163.256 66.4761 163.123 66.178 162.956 65.8468C162.79 65.5156 162.623 65.2506 162.457 65.085C162.29 64.9525 162.124 64.82 161.891 64.7537C161.658 64.6544 161.391 64.6213 161.125 64.5881C160.992 64.5881 160.859 64.555 160.759 64.555C160.659 64.555 160.559 64.555 160.459 64.555C160.359 64.555 160.259 64.555 160.159 64.555C160.059 64.555 159.926 64.555 159.76 64.555C159.726 64.6875 159.727 64.8862 159.727 65.1512C159.727 65.4162 159.727 65.6812 159.727 65.9793C159.727 66.1118 159.727 66.2442 159.727 66.4098C159.727 66.5755 159.727 66.7411 159.727 66.9067C159.727 67.0723 159.727 67.2048 159.727 67.3704C159.727 67.536 159.727 67.6354 159.727 67.7347C159.727 68.066 159.76 68.364 159.793 68.629C159.826 68.894 159.86 69.1259 159.96 69.2583C160.059 69.3908 160.259 69.4902 160.592 69.5564C160.925 69.6227 161.291 69.6558 161.691 69.6558C161.858 69.6558 162.091 69.6558 162.324 69.6558C162.59 69.6558 162.856 69.6227 163.156 69.5896C163.489 69.5564 163.755 69.4902 164.022 69.3577C164.288 69.2583 164.555 69.0927 164.788 68.8609C165.021 68.629 165.287 68.3972 165.52 68.0991C165.753 67.801 165.986 67.4366 166.253 67.006L166.419 67.0392L165.72 69.8545Z" fill="white"/>
<path d="M178.672 59.653C178.439 59.7855 178.273 60.0173 178.173 60.2823C178.106 60.4148 178.073 60.7129 178.04 61.1104C178.006 61.5078 178.006 61.9384 177.973 62.4021C177.94 62.8327 177.94 63.3295 177.907 63.8926C177.907 64.4557 177.873 65.085 177.873 65.7475C177.873 66.0124 177.873 66.3436 177.873 66.708C177.873 67.0392 177.873 67.4036 177.873 67.7679C177.873 68.1322 177.873 68.4966 177.873 68.8278C177.873 69.159 177.873 69.4902 177.873 69.7883C177.873 69.8215 177.873 69.8546 177.84 69.8877C177.807 69.9208 177.773 69.9208 177.74 69.9208C177.673 69.9208 177.574 69.8877 177.474 69.7883C176.641 68.8278 175.875 67.9335 175.176 67.1386C174.477 66.3436 173.811 65.5487 173.178 64.82C172.546 64.0913 171.946 63.3627 171.314 62.6671C170.714 61.9715 170.082 61.2429 169.383 60.481V66.708C169.383 67.2048 169.382 67.6685 169.416 68.066C169.449 68.4635 169.516 68.7616 169.616 68.9603C169.715 69.1921 169.882 69.3578 170.115 69.4571C170.348 69.5565 170.681 69.6559 171.081 69.689V69.8215H167.418V69.689C167.651 69.6559 167.884 69.5896 168.117 69.4902C168.35 69.3909 168.55 69.2253 168.683 69.0265C168.816 68.8278 168.916 68.5297 168.95 68.0991C168.983 67.7017 169.016 67.2048 169.05 66.6417C169.083 66.2112 169.083 65.7143 169.083 65.1513C169.083 64.5882 169.083 63.9589 169.083 63.2964C169.083 62.9983 169.083 62.7665 169.083 62.6009C169.083 62.4352 169.083 62.2365 169.083 62.0378C169.083 61.839 169.083 61.6734 169.083 61.4747C169.083 61.276 169.083 61.0441 169.083 60.746C169.05 60.4479 168.983 60.2161 168.883 60.0505C168.783 59.8517 168.65 59.7192 168.483 59.6199C168.317 59.5205 168.184 59.4543 167.984 59.388C167.784 59.3218 167.651 59.3218 167.485 59.2886V59.1562H170.515L177.574 67.3373V62.3028C177.574 61.9053 177.574 61.5409 177.574 61.1766C177.574 60.8123 177.507 60.5473 177.44 60.3154C177.341 60.0505 177.174 59.8186 176.908 59.653C176.641 59.4874 176.275 59.3549 175.809 59.2886V59.1562H179.505V59.2886C179.172 59.4211 178.905 59.5205 178.672 59.653Z" fill="white"/>
<path d="M191.725 62.0046C191.658 61.839 191.558 61.6403 191.459 61.4415C191.359 61.2428 191.225 61.0772 191.126 60.9116C191.026 60.746 190.892 60.5804 190.793 60.4479C190.693 60.3154 190.593 60.1829 190.526 60.1166C190.326 59.9179 190.093 59.7854 189.86 59.7192C189.627 59.6529 189.294 59.6198 188.928 59.6198C188.728 59.6198 188.562 59.6198 188.428 59.6198C188.295 59.6198 188.162 59.6198 187.996 59.6198C187.862 59.6198 187.729 59.6198 187.563 59.6198C187.43 59.6198 187.23 59.6198 186.997 59.6198C186.997 59.8517 186.997 60.216 186.997 60.6135C186.997 61.0441 186.997 61.4747 186.997 61.9384C186.997 62.4021 186.997 62.8658 186.997 63.3295C186.997 63.7601 186.997 64.1575 186.997 64.4556V67.7347C186.997 68.0328 186.997 68.2978 187.03 68.5628C187.03 68.8278 187.097 68.9934 187.163 69.1259C187.296 69.3577 187.529 69.4902 187.796 69.5564C188.062 69.6227 188.329 69.6889 188.528 69.7221V69.8545H183.7V69.7221C183.967 69.6889 184.2 69.6558 184.433 69.5896C184.666 69.5233 184.899 69.3577 185.132 69.0927C185.165 69.0596 185.232 68.9602 185.232 68.8609C185.265 68.7615 185.265 68.629 185.299 68.4634C185.299 68.3309 185.332 68.1653 185.332 67.9997C185.332 67.8341 185.332 67.6685 185.332 67.5029C185.332 67.3704 185.332 67.1717 185.332 66.9398C185.332 66.7079 185.332 66.4761 185.332 66.178C185.332 65.913 185.332 65.6149 185.332 65.3168C185.332 65.0187 185.332 64.7537 185.332 64.4888V59.5867C185.132 59.5867 184.932 59.5867 184.766 59.5867C184.633 59.5867 184.466 59.5867 184.333 59.5867C184.2 59.5867 184.067 59.5867 183.933 59.5867C183.8 59.5867 183.634 59.5867 183.434 59.5867C183.068 59.5867 182.735 59.6529 182.502 59.7192C182.269 59.7854 182.035 59.951 181.836 60.1166C181.769 60.1829 181.669 60.2823 181.569 60.4147C181.469 60.5472 181.37 60.7128 181.236 60.8785C181.103 61.0441 181.003 61.2097 180.903 61.4084C180.803 61.6071 180.704 61.7728 180.67 61.9715L180.537 61.9384L180.97 59.123C181.203 59.1561 181.403 59.2224 181.603 59.2555C181.802 59.2886 182.069 59.2886 182.435 59.3217C182.801 59.3217 183.134 59.3548 183.434 59.3548C183.734 59.3548 184.033 59.3548 184.3 59.3548C184.566 59.3548 184.866 59.3548 185.132 59.3548C185.432 59.3548 185.765 59.3548 186.131 59.3548C186.497 59.3548 186.83 59.3548 187.097 59.3548C187.396 59.3548 187.696 59.3548 187.962 59.3548C188.229 59.3548 188.528 59.3548 188.828 59.3548C189.128 59.3548 189.461 59.3548 189.827 59.3548C190.16 59.3548 190.426 59.3217 190.626 59.2886C190.826 59.2555 191.059 59.1892 191.292 59.123L191.758 62.0046H191.725Z" fill="white"/>
<path d="M201.947 69.8545H192.856V69.7221C193.09 69.6889 193.323 69.6227 193.556 69.5233C193.755 69.424 193.955 69.3246 194.088 69.159C194.122 69.0927 194.188 69.0265 194.222 68.894C194.255 68.7946 194.288 68.6622 194.288 68.4965C194.288 68.3309 194.322 68.1984 194.355 68.0328C194.388 67.8672 194.355 67.7016 194.355 67.536C194.355 67.4035 194.355 67.2048 194.355 66.9729C194.355 66.7411 194.355 66.4761 194.355 66.2111C194.355 65.9461 194.355 65.648 194.355 65.3499C194.355 65.0518 194.355 64.7537 194.355 64.4888V61.6072C194.355 61.4415 194.355 61.2428 194.355 61.0441C194.355 60.8453 194.355 60.6797 194.322 60.5141C194.288 60.3485 194.288 60.1829 194.255 60.0504C194.222 59.9179 194.188 59.8186 194.122 59.7523C193.989 59.5867 193.822 59.4873 193.656 59.4542C193.489 59.4211 193.256 59.3549 192.99 59.3217V59.1892H201.181L202.18 61.6403L202.046 61.7065C201.247 60.7129 200.481 60.0504 199.782 59.6861C199.616 59.6198 199.316 59.5536 198.85 59.4873C198.384 59.4211 197.851 59.388 197.185 59.388C196.985 59.388 196.752 59.388 196.552 59.4211C196.319 59.4211 196.153 59.4542 196.053 59.4873C196.02 59.653 196.02 59.9842 195.986 60.4479C195.953 60.9116 195.953 61.5078 195.953 62.1702C195.953 62.5346 195.953 62.8658 195.953 63.1308C195.953 63.3957 195.953 63.5945 195.953 63.7601C195.953 63.9257 195.953 64.0582 195.953 64.1244C195.953 64.1907 195.953 64.2569 195.953 64.29C195.986 64.29 196.086 64.29 196.253 64.29C196.419 64.29 196.586 64.29 196.752 64.29C196.952 64.29 197.152 64.2569 197.318 64.2569C197.518 64.2569 197.685 64.2238 197.818 64.1907C198.117 64.1244 198.35 64.0251 198.55 63.9257C198.75 63.8263 198.917 63.6607 199.05 63.4951C199.183 63.3295 199.283 63.1308 199.349 62.8989C199.416 62.6671 199.483 62.4352 199.549 62.1371H199.716V66.8073H199.549C199.483 66.4761 199.349 66.178 199.183 65.8468C199.016 65.5156 198.85 65.2506 198.683 65.085C198.517 64.9525 198.35 64.82 198.117 64.7537C197.884 64.6544 197.618 64.6213 197.352 64.5881C197.218 64.5881 197.085 64.555 196.985 64.555C196.885 64.555 196.786 64.555 196.686 64.555C196.586 64.555 196.486 64.555 196.386 64.555C196.286 64.555 196.153 64.555 195.986 64.555C195.953 64.6875 195.953 64.8862 195.953 65.1512C195.953 65.4162 195.953 65.6812 195.953 65.9793C195.953 66.1118 195.953 66.2442 195.953 66.4098C195.953 66.5755 195.953 66.7411 195.953 66.9067C195.953 67.0723 195.953 67.2048 195.953 67.3704C195.953 67.536 195.953 67.6354 195.953 67.7347C195.953 68.066 195.986 68.364 196.02 68.629C196.053 68.894 196.086 69.1259 196.186 69.2583C196.286 69.3908 196.486 69.4902 196.819 69.5564C197.152 69.6227 197.518 69.6558 197.918 69.6558C198.084 69.6558 198.317 69.6558 198.55 69.6558C198.817 69.6558 199.083 69.6227 199.383 69.5896C199.716 69.5564 199.982 69.4902 200.248 69.3577C200.515 69.2583 200.781 69.0927 201.014 68.8609C201.247 68.629 201.514 68.3972 201.747 68.0991C201.98 67.801 202.213 67.4366 202.479 67.006L202.646 67.0392L201.947 69.8545Z" fill="white"/>
<path d="M211.936 69.8546C211.836 69.7552 211.77 69.689 211.736 69.6559C211.703 69.6227 211.637 69.5565 211.603 69.4902C211.57 69.424 211.503 69.3578 211.403 69.2253C211.337 69.1259 211.204 68.9272 211.07 68.7284C210.871 68.4635 210.704 68.1985 210.571 67.9666C210.438 67.7348 210.271 67.536 210.138 67.3042C210.005 67.0723 209.838 66.8736 209.639 66.6417C209.472 66.4099 209.272 66.178 209.006 65.8799C208.806 65.6481 208.606 65.4493 208.373 65.2506C208.14 65.0519 207.907 64.9194 207.641 64.8863C207.441 64.8531 207.308 64.82 207.208 64.82C207.108 64.82 207.008 64.82 206.875 64.82C206.875 65.4493 206.875 66.0124 206.875 66.4761C206.875 66.9398 206.875 67.3373 206.875 67.6685C206.875 67.9997 206.908 68.2647 206.908 68.4966C206.908 68.7284 206.975 68.9272 207.075 69.0597C207.141 69.1921 207.308 69.3246 207.541 69.4571C207.774 69.5896 208.074 69.6559 208.507 69.689V69.8215H203.745V69.689C203.978 69.6559 204.245 69.5896 204.444 69.5234C204.677 69.4571 204.844 69.3246 204.977 69.159C205.01 69.0928 205.077 69.0265 205.11 68.894C205.144 68.7616 205.177 68.6291 205.177 68.4966C205.177 68.3641 205.21 68.1985 205.21 68.0329C205.21 67.8673 205.21 67.7016 205.21 67.536C205.21 67.4035 205.21 67.2048 205.21 66.973C205.21 66.7411 205.21 66.4761 205.21 66.2112C205.21 65.9462 205.21 65.6481 205.21 65.35C205.21 65.0519 205.21 64.7538 205.21 64.4888V61.6072C205.21 61.4416 205.21 61.2428 205.21 61.0772C205.21 60.9116 205.21 60.7129 205.177 60.5473C205.144 60.3817 205.144 60.2492 205.11 60.1167C205.077 59.9842 205.044 59.8848 204.977 59.8186C204.844 59.653 204.677 59.5536 204.478 59.4874C204.278 59.4211 204.078 59.388 203.812 59.3549V59.2224C203.878 59.2224 204.078 59.2224 204.411 59.2224C204.744 59.2224 205.144 59.2224 205.543 59.2224C205.976 59.2224 206.409 59.2224 206.808 59.2224C207.241 59.2224 207.574 59.2224 207.841 59.2224C208.507 59.2224 209.106 59.2555 209.605 59.2886C210.105 59.3217 210.604 59.4542 211.004 59.6861C211.437 59.9179 211.803 60.216 212.069 60.6135C212.336 61.011 212.469 61.5078 212.469 62.0709C212.469 62.4352 212.402 62.7664 212.269 63.0645C212.136 63.3626 211.97 63.6276 211.736 63.8264C211.503 64.0582 211.237 64.2238 210.971 64.3894C210.671 64.555 210.371 64.6875 210.038 64.7869V64.82C210.205 64.9194 210.371 65.0519 210.538 65.2175C210.704 65.3831 210.837 65.5818 211.004 65.7806C211.27 66.1449 211.537 66.5755 211.836 67.0061C212.136 67.4367 212.402 67.8341 212.635 68.1654C213.002 68.6622 213.368 69.0597 213.701 69.2915C214.034 69.5234 214.467 69.689 214.933 69.7552V69.8877H211.936V69.8546ZM210.471 60.6466C210.238 60.2492 209.872 59.9511 209.372 59.7192C209.139 59.6198 208.873 59.5205 208.606 59.4874C208.34 59.4542 208.074 59.4211 207.774 59.4211C207.574 59.4211 207.408 59.4211 207.275 59.4211C207.141 59.4211 207.042 59.4542 206.975 59.4542C206.975 59.5205 206.942 59.5536 206.942 59.6198C206.942 59.653 206.908 59.7192 206.908 59.7855C206.908 59.8517 206.908 59.9511 206.908 60.0836C206.908 60.216 206.908 60.3817 206.875 60.6135C206.875 60.9447 206.842 61.3422 206.842 61.7728C206.842 62.2034 206.842 62.634 206.842 63.0314C206.842 63.4289 206.842 63.7932 206.842 64.0913C206.842 64.3894 206.842 64.5882 206.842 64.6544C207.241 64.6544 207.641 64.6213 207.974 64.5882C208.34 64.555 208.673 64.4888 209.006 64.3894C209.339 64.2901 209.605 64.1576 209.838 63.992C210.072 63.8264 210.238 63.6276 210.405 63.4289C210.538 63.2302 210.671 62.9983 210.738 62.7333C210.804 62.4683 210.837 62.2365 210.837 61.9715C210.837 61.4747 210.704 61.0441 210.471 60.6466Z" fill="white"/>
</svg>
