<svg width="20" height="19" viewBox="0 0 20 19" fill="none" xmlns="http://www.w3.org/2000/svg">
<path d="M10.2005 0.350385L12.6785 6.21538L19.0225 6.76039C19.1204 6.76874 19.2137 6.80578 19.2907 6.86688C19.3677 6.92797 19.425 7.01041 19.4554 7.10388C19.4858 7.19736 19.488 7.29773 19.4617 7.39244C19.4354 7.48715 19.3817 7.572 19.3075 7.63638L14.5005 11.8054L15.9425 18.0054C15.9646 18.1011 15.958 18.2011 15.9237 18.2931C15.8893 18.3851 15.8286 18.4649 15.7491 18.5226C15.6697 18.5803 15.575 18.6133 15.4769 18.6175C15.3788 18.6218 15.2816 18.597 15.1975 18.5464L9.74147 15.2604L4.28947 18.5484C4.20534 18.599 4.10817 18.6238 4.01007 18.6195C3.91197 18.6153 3.81728 18.5823 3.73783 18.5246C3.65838 18.4669 3.59767 18.3871 3.56328 18.2951C3.5289 18.2031 3.52236 18.1031 3.54447 18.0074L4.98647 11.8074L0.173471 7.63539C0.0991952 7.571 0.0455454 7.48615 0.0192286 7.39144C-0.00708811 7.29673 -0.00490417 7.19636 0.0255074 7.10288C0.055919 7.00941 0.113209 6.92697 0.190216 6.86588C0.267222 6.80478 0.360529 6.76774 0.458471 6.75938L6.80047 6.21439L9.28047 0.350385C9.31875 0.259891 9.38284 0.182681 9.46474 0.128398C9.54664 0.0741154 9.64272 0.045166 9.74097 0.045166C9.83923 0.045166 9.9353 0.0741154 10.0172 0.128398C10.0991 0.182681 10.1632 0.259891 10.2015 0.350385H10.2005Z" stroke="#DFB489" stroke-linejoin="miter"  stroke-width="1" />
</svg>
