<svg width="14" height="14" viewBox="0 0 14 14" fill="none" xmlns="http://www.w3.org/2000/svg">
<path d="M6.68842 7.022C7.54968 6.94901 8.34748 6.53956 8.90897 5.88237C9.47046 5.22517 9.7504 4.37318 9.68813 3.511C9.68813 0.822 8.34526 0 6.68842 0C5.03159 0 3.68872 0.822 3.68872 3.511C3.62645 4.37318 3.90638 5.22517 4.46787 5.88237C5.02936 6.53956 5.82717 6.94901 6.68842 7.022Z" fill="white"/>
<path d="M13.3127 12.19L11.7989 8.78C11.7291 8.6236 11.6087 8.49534 11.4569 8.416L9.10815 7.19301C9.08274 7.17985 9.05412 7.17418 9.02562 7.17665C8.99712 7.17913 8.96991 7.18966 8.94716 7.207C8.29949 7.70506 7.50539 7.97509 6.68838 7.97509C5.87138 7.97509 5.07728 7.70506 4.42961 7.207C4.40681 7.18977 4.37961 7.17931 4.35113 7.17684C4.32266 7.17436 4.29406 7.17997 4.26862 7.19301L1.91986 8.416C1.76807 8.49528 1.64755 8.62356 1.57789 8.78L0.06504 12.19C0.0139107 12.3053 -0.00762346 12.4315 0.00239274 12.5571C0.0124089 12.6828 0.0536582 12.804 0.122395 12.9097C0.191132 13.0154 0.28518 13.1023 0.395999 13.1624C0.506817 13.2225 0.630897 13.254 0.756972 13.254H12.6208C12.7469 13.254 12.871 13.2225 12.9818 13.1624C13.0926 13.1023 13.1866 13.0154 13.2554 12.9097C13.3241 12.804 13.3654 12.6828 13.3754 12.5571C13.3854 12.4315 13.3639 12.3053 13.3127 12.19Z" fill="white"/>
</svg>
